# xmcd
# 
# Track frame offsets:
#     185
#     16882
#     31014
#     45677
#     56988
#     75425
#     90596
#     107140
#     121858
#     135490
#     153407
#     164939
# 
# Disc length: 2346
# 
# Revision: 6
# Processed by: cddbd v1.5.2PL0 Copyright (c) Steve Scherf et al.
# Submitted via: fre:ac v1.0.31
# 
DISCID=9209280c
DTITLE=Clara Montes - Poemas de Antonio Gala
DYEAR=1998
DGENRE=Folk
TTITLE0=Agua me daban a mí
TTITLE1=Hoy encuentro temblando ya y vacía
TTITLE2=Tu me abandonarás
TTITLE3=Buscador
TTITLE4=A pie van mis suspiros
TTITLE5=Que dolor de la verde grama
TTITLE6=Adiós
TTITLE7=A trabajos forzados
TTITLE8=No por amor
TTITLE9=Sevillanas
TTITLE10=Soneto de la luna
TTITLE11=Hoy vuelvo a la ciudad enamorada
EXTD=YEAR: 1998
EXTT0=
EXTT1=
EXTT2=
EXTT3=
EXTT4=
EXTT5=
EXTT6=
EXTT7=
EXTT8=
EXTT9=
EXTT10=
EXTT11=
PLAYORDER=
